<svg xmlns="http://www.w3.org/2000/svg" viewBox="0 0 60 60">
	<g fill="none" fill-rule="evenodd">
		<path fill="#FF0038"
			  d="M0 60h15.254L0 38.25zM0 16.5v14.17L17.889 58.5l14.145-21.873L19.22 16.5zM45.67 16.5L33.56 34.621V60h25.932V16.5z"/>
		<g fill="#000">
			<path
				d="M5.75 15.773C2.4 15.773 0 13.13 0 9.849c0-3.281 2.4-5.967 5.75-5.967 2.68 0 4.711 1.541 5.36 4.095H8.062c-.388-.77-1.275-1.431-2.312-1.431-1.578 0-2.854 1.498-2.854 3.325 0 1.784 1.276 3.26 2.854 3.26 1.059 0 1.967-.661 2.334-1.454h3.048c-.649 2.576-2.68 4.096-5.382 4.096M11.857 15.509h2.854V4.168h-2.854zM22.104 15.487c-3.264.352-4.994-1.652-4.994-4.757V6.744h-1.34V4.168h1.34V.226h2.854v3.942h2.01v2.576h-2.01v4.008c0 1.586.713 2.18 2.14 2.092v2.643zM23.255 15.509h2.854V4.168h-2.854zM36.798 15.509H27.07v-2.51l5.88-6.21h-5.642V4.167h9.296v2.599l-5.772 6.122h5.966zM45.267 8.594c-.346-1.321-1.426-2.158-2.788-2.158-1.298 0-2.335.837-2.745 2.158h5.533zm-5.577 2.378c.367 1.388 1.448 2.247 2.789 2.247.95 0 1.88-.42 2.356-1.322h3.048c-.648 2.312-2.616 3.876-5.383 3.876-3.135 0-5.706-2.643-5.706-5.924 0-3.281 2.571-5.968 5.706-5.968 3.286 0 6.01 2.599 5.598 7.091H39.69zM58.941 15.509h-2.853V8.88c0-.66-.194-2.246-2.075-2.246-1.275 0-2.161.969-2.161 2.246v6.629h-2.854V4.168h2.723v1.101c.714-.86 1.687-1.387 2.876-1.387 2.615 0 4.344 2.003 4.344 4.998v6.629z"/>
		</g>
	</g>
</svg>